<svg xmlns="http://www.w3.org/2000/svg" viewBox="0 8.859999656677246 156.86000061035156 118.20823669433594" data-asc="0.9052734375"><g fill="#ffffff"><g fill="#ffffff" transform="translate(0, 0)"><path d="M0 33.76L4.47 33.37Q4.79 36.06 5.94 37.78Q7.10 39.50 9.55 40.56Q11.99 41.63 15.04 41.63Q17.75 41.63 19.82 40.82Q21.90 40.01 22.91 38.61Q23.93 37.21 23.93 35.55Q23.93 33.86 22.95 32.60Q21.97 31.35 19.73 30.49Q18.29 29.93 13.35 28.75Q8.42 27.56 6.45 26.51Q3.88 25.17 2.62 23.18Q1.37 21.19 1.37 18.73Q1.37 16.02 2.91 13.66Q4.44 11.30 7.40 10.08Q10.35 8.86 13.96 8.86Q17.94 8.86 20.98 10.14Q24.02 11.43 25.66 13.92Q27.29 16.41 27.42 19.56L22.88 19.90Q22.51 16.50 20.40 14.77Q18.29 13.04 14.16 13.04Q9.86 13.04 7.90 14.61Q5.93 16.19 5.93 18.41Q5.93 20.34 7.32 21.58Q8.69 22.83 14.47 24.13Q20.24 25.44 22.39 26.42Q25.51 27.86 27.00 30.07Q28.49 32.28 28.49 35.16Q28.49 38.01 26.86 40.54Q25.22 43.07 22.16 44.47Q19.09 45.87 15.26 45.87Q10.40 45.87 7.12 44.46Q3.83 43.04 1.97 40.20Q0.10 37.35 0 33.76ZM52.15 36.91L56.69 37.48Q55.62 41.46 52.71 43.65Q49.80 45.85 45.29 45.85Q39.60 45.85 36.27 42.35Q32.93 38.84 32.93 32.52Q32.93 25.98 36.30 22.36Q39.67 18.75 45.04 18.75Q50.24 18.75 53.54 22.29Q56.84 25.83 56.84 32.25Q56.84 32.64 56.81 33.42L37.48 33.42Q37.72 37.70 39.89 39.97Q42.07 42.24 45.31 42.24Q47.73 42.24 49.44 40.97Q51.15 39.70 52.15 36.91M37.72 29.81L52.20 29.81Q51.90 26.54 50.54 24.90Q48.44 22.36 45.09 22.36Q42.07 22.36 40.00 24.39Q37.94 26.42 37.72 29.81ZM79.96 36.91L84.50 37.48Q83.42 41.46 80.52 43.65Q77.61 45.85 73.10 45.85Q67.41 45.85 64.07 42.35Q60.74 38.84 60.74 32.52Q60.74 25.98 64.11 22.36Q67.48 18.75 72.85 18.75Q78.05 18.75 81.35 22.29Q84.64 25.83 84.64 32.25Q84.64 32.64 84.62 33.42L65.28 33.42Q65.53 37.70 67.70 39.97Q69.87 42.24 73.12 42.24Q75.54 42.24 77.25 40.97Q78.96 39.70 79.96 36.91M65.53 29.81L80.00 29.81Q79.71 26.54 78.34 24.90Q76.25 22.36 72.90 22.36Q69.87 22.36 67.81 24.39Q65.75 26.42 65.53 29.81ZM90.04 45.26L90.04 9.47L94.43 9.47L94.43 29.88L104.83 19.34L110.52 19.34L100.61 28.96L111.52 45.26L106.10 45.26L97.53 32.01L94.43 34.99L94.43 45.26L90.04 45.26ZM132.76 36.91L137.30 37.48Q136.23 41.46 133.33 43.65Q130.42 45.85 125.90 45.85Q120.21 45.85 116.88 42.35Q113.55 38.84 113.55 32.52Q113.55 25.98 116.92 22.36Q120.29 18.75 125.66 18.75Q130.86 18.75 134.16 22.29Q137.45 25.83 137.45 32.25Q137.45 32.64 137.43 33.42L118.09 33.42Q118.33 37.70 120.51 39.97Q122.68 42.24 125.93 42.24Q128.34 42.24 130.05 40.97Q131.76 39.70 132.76 36.91M118.33 29.81L132.81 29.81Q132.52 26.54 131.15 24.90Q129.05 22.36 125.71 22.36Q122.68 22.36 120.62 24.39Q118.55 26.42 118.33 29.81ZM142.77 45.26L142.77 19.34L146.73 19.34L146.73 23.27Q148.24 20.51 149.52 19.63Q150.81 18.75 152.34 18.75Q154.57 18.75 156.86 20.17L155.35 24.24Q153.74 23.29 152.12 23.29Q150.68 23.29 149.54 24.16Q148.39 25.02 147.90 26.56Q147.17 28.91 147.17 31.69L147.17 45.26L142.77 45.26Z"/></g><g fill="#ffffff" transform="translate(0, 40.59912109375)"><path d="M0 45.26L13.84 26.61L1.64 9.47L7.28 9.47L13.77 18.65Q15.80 21.51 16.65 23.05Q17.85 21.09 19.48 18.97L26.68 9.47L31.84 9.47L19.26 26.34L32.81 45.26L26.95 45.26L17.94 32.50Q17.19 31.40 16.38 30.10Q15.19 32.06 14.67 32.79L5.69 45.26L0 45.26ZM36.84 45.26L36.84 9.47L43.97 9.47L52.44 34.81Q53.61 38.35 54.15 40.11Q54.76 38.16 56.05 34.38L64.62 9.47L71.00 9.47L71.00 45.26L66.43 45.26L66.43 15.31L56.03 45.26L51.76 45.26L41.41 14.79L41.41 45.26L36.84 45.26ZM78.44 45.26L78.44 9.47L83.18 9.47L83.18 41.04L100.81 41.04L100.81 45.26L78.44 45.26Z"/></g><g fill="#ffffff" transform="translate(0, 81.1982421875)"><path d="M0 45.26L0 9.47L7.13 9.47L15.60 34.81Q16.77 38.35 17.31 40.11Q17.92 38.16 19.21 34.38L27.78 9.47L34.16 9.47L34.16 45.26L29.59 45.26L29.59 15.31L19.19 45.26L14.92 45.26L4.57 14.79L4.57 45.26L0 45.26ZM37.87 45.26L51.61 9.47L56.71 9.47L71.36 45.26L65.97 45.26L61.79 34.42L46.83 34.42L42.90 45.26L37.87 45.26M48.19 30.57L60.33 30.57L56.59 20.65Q54.88 16.14 54.05 13.23Q53.37 16.67 52.12 20.07L48.19 30.57ZM98.63 9.47L103.37 9.47L103.37 30.15Q103.37 35.55 102.15 38.72Q100.93 41.89 97.74 43.88Q94.56 45.87 89.38 45.87Q84.35 45.87 81.15 44.14Q77.95 42.41 76.59 39.12Q75.22 35.84 75.22 30.15L75.22 9.47L79.96 9.47L79.96 30.13Q79.96 34.79 80.82 37.00Q81.69 39.21 83.80 40.41Q85.91 41.60 88.96 41.60Q94.19 41.60 96.41 39.23Q98.63 36.87 98.63 30.13L98.63 9.47ZM112.06 45.26L112.06 9.47L116.80 9.47L116.80 45.26L112.06 45.26Z"/></g></g></svg>