<svg xmlns="http://www.w3.org/2000/svg" viewBox="0 10.800000190734863 167.39999389648438 118.81001281738281" data-asc="0.93"><g fill="#000000"><g fill="#000000" transform="translate(0, 0)"><path d="M0 45.40L0.30 42.40L0.60 42.40Q2.55 44.10 5.00 45.05Q7.45 46 9.85 46Q13.25 46 15.35 44.13Q17.45 42.25 17.45 39.10Q17.45 37.35 16.68 35.85Q15.90 34.35 14.13 32.80Q12.35 31.25 9.25 29.45Q7.10 28.20 5.15 26.82Q3.20 25.45 1.95 23.63Q0.70 21.80 0.70 19.25Q0.70 15.45 3.45 13.13Q6.20 10.80 10.70 10.80Q12.70 10.80 15 11.23Q17.30 11.65 18.55 12.30L18.30 15.10L18.00 15.10Q15.15 12 10.70 12Q7.50 12 5.55 13.63Q3.60 15.25 3.60 18Q3.60 20.05 4.67 21.52Q5.75 23 7.45 24.17Q9.15 25.35 11.10 26.45Q13.35 27.75 15.48 29.20Q17.60 30.65 18.98 32.67Q20.35 34.70 20.35 37.75Q20.35 40.55 19.05 42.67Q17.75 44.80 15.38 46Q13 47.20 9.85 47.20Q7.85 47.20 5.15 46.70Q2.45 46.20 0 45.40ZM30.20 46.50L30.20 11.50L45.45 11.50L45.45 13.95L36.70 12.80Q34.40 12.50 33.60 12.50L33.60 27.75Q34.25 27.75 36.70 27.60L44.90 27.10L44.90 29.40L36.70 28.90Q34.25 28.75 33.60 28.75L33.60 45.50Q34.50 45.50 36.75 45.20L45.60 44.05L45.60 46.50L30.20 46.50ZM56.10 46.50L56.10 11.50L71.35 11.50L71.35 13.95L62.60 12.80Q60.30 12.50 59.50 12.50L59.50 27.75Q60.15 27.75 62.60 27.60L70.80 27.10L70.80 29.40L62.60 28.90Q60.15 28.75 59.50 28.75L59.50 45.50Q60.40 45.50 62.65 45.20L71.50 44.05L71.50 46.50L56.10 46.50ZM103.60 46.50L87.20 28.55L102.40 11.50L106.70 11.50L90.25 27.15L108.10 46.50L103.60 46.50M82.00 46.50L82.00 11.50L85.40 11.50L85.40 46.50L82.00 46.50ZM115.60 46.50L115.60 11.50L130.85 11.50L130.85 13.95L122.10 12.80Q119.80 12.50 119.00 12.50L119.00 27.75Q119.65 27.75 122.10 27.60L130.30 27.10L130.30 29.40L122.10 28.90Q119.65 28.75 119.00 28.75L119.00 45.50Q119.90 45.50 122.15 45.20L131.00 44.05L131.00 46.50L115.60 46.50ZM141.50 11.50L148.20 11.50Q153.50 11.50 156.43 13.73Q159.35 15.95 159.35 19.95Q159.35 23.05 157.53 25.10Q155.70 27.15 152.25 27.85L152.25 28.15Q155.55 28.80 157.65 31.25Q159.75 33.70 160.80 37.30Q161.75 40.60 162.68 42.42Q163.60 44.25 164.73 45.05Q165.85 45.85 167.40 46.20L167.40 46.50L165.35 46.50Q163.15 46.50 161.73 45.70Q160.30 44.90 159.30 43Q158.30 41.10 157.40 37.75Q155.95 32.60 153.55 30.45Q151.15 28.30 147.70 28.30L147.40 28.30L147.40 27.40L147.70 27.40Q155.75 27.40 155.75 20Q155.75 12.70 148.20 12.70L144.90 12.70L144.90 46.50L141.50 46.50L141.50 11.50Z"/></g><g fill="#000000" transform="translate(0, 41.205000000000005)"><path d="M0 46.50L12.90 29.05L1 11.50L5 11.50L14.85 26.05L15.15 26.05L23.70 11.50L27.70 11.50L15.70 27.35L28.70 46.50L24.70 46.50L13.75 30.35L13.45 30.35L4 46.50L0 46.50ZM69.45 11.50L69.45 46.50L66.05 46.50L66.05 14.40L65.75 14.40L53.65 37.60L52.10 37.60L38.35 17.15L38.05 17.15L39.15 46.50L35.75 46.50L37 10.80L38 10.80L53.75 34.20L54.05 34.20L65.85 11.50L69.45 11.50ZM82.45 11.50L85.85 11.50L85.85 45.50Q86.80 45.50 88.85 45.20L97.15 43.95L97.15 46.50L82.45 46.50L82.45 11.50Z"/></g><g fill="#000000" transform="translate(0, 82.41000000000001)"><path d="M33.70 11.50L33.70 46.50L30.30 46.50L30.30 14.40L30 14.40L17.90 37.60L16.35 37.60L2.60 17.15L2.30 17.15L3.40 46.50L0 46.50L1.25 10.80L2.25 10.80L18 34.20L18.30 34.20L30.10 11.50L33.70 11.50ZM41.50 46.50L54.95 11.50L58.05 11.50L71.50 46.50L67.85 46.50L61.65 30.10L50.30 30.10L45.15 46.50L41.50 46.50M55.30 14.10L50.65 28.90L61.20 28.90L55.60 14.10L55.30 14.10ZM78.10 11.50L81.50 11.50L81.50 32.60Q81.50 38.65 84.47 42.02Q87.45 45.40 92.85 45.40Q96.25 45.40 98.77 44.08Q101.30 42.75 102.67 40.40Q104.05 38.05 103.95 35L103.10 11.50L106.50 11.50L105.65 35Q105.45 41 102.07 44.10Q98.70 47.20 92.45 47.20Q85.70 47.20 81.90 43.27Q78.10 39.35 78.10 32.50L78.10 11.50ZM118.50 46.50L118.50 11.50L121.90 11.50L121.90 46.50L118.50 46.50Z"/></g></g></svg>